<?xml version="1.0" encoding="utf-8"?>
<svg xmlns="http://www.w3.org/2000/svg" viewBox="0 0 32 32" width="512" height="512">
  <path d="M16.003906 4C13.804608 3.99203 12.005435 5.7999507 12.001953 7.9941406C11.993153 9.1449545 12.587881 9.9856419 13.058594 10.585938C13.513259 11.165766 13.857603 11.590406 14.005859 12.162109L14 12.162109L14 14L16.015625 15L18 14L18 12.197266C18.199799 11.684108 18.57114 11.203504 19.001953 10.605469C19.465763 9.9616286 19.995178 9.1150902 20 8.0039062C20.009305 5.7720193 18.162933 4.0079964 16.003906 4 z M 15.996094 6C17.077067 6.004 18.004695 6.8699807 18 7.9960938C17.9978 8.4979098 17.784596 8.8723868 17.378906 9.4355469C17.096784 9.8271592 16.766919 10.424888 16.455078 11L15.544922 11C15.240971 10.386842 14.927175 9.7269596 14.632812 9.3515625C14.199673 8.7991832 13.995478 8.5075092 14 8.0097656L14 8.0039062L14 8C14 6.8850628 14.885522 5.9959762 15.996094 6 z M 11 15C9.7500003 15 8.6852256 15.504756 8.0019531 16.273438C7.3186806 17.042119 7 18.027778 7 19C7 19.972222 7.3186806 20.957881 8.0019531 21.726562C8.2555265 22.011834 8.6085143 22.213855 8.9570312 22.414062C6.6641625 23.259093 5 25.422051 5 28L7 28C7 25.779625 8.7796254 24 11 24C13.220375 24 15 25.779625 15 28L17 28C17 25.779625 18.779625 24 21 24C23.220375 24 25 25.779625 25 28L27 28C27 25.422051 25.335838 23.259094 23.042969 22.414062C23.391486 22.213855 23.744473 22.011834 23.998047 21.726562C24.681319 20.957881 25 19.972222 25 19C25 18.027778 24.681319 17.042119 23.998047 16.273438C23.314774 15.504756 22.25 15 21 15C19.75 15 18.685226 15.504756 18.001953 16.273438C17.318681 17.042119 17 18.027778 17 19C17 19.972222 17.318681 20.957881 18.001953 21.726562C18.255527 22.011834 18.608514 22.213855 18.957031 22.414062C17.698782 22.877788 16.703291 23.767562 16 24.888672C15.296709 23.767562 14.301218 22.877787 13.042969 22.414062C13.391486 22.213855 13.744473 22.011834 13.998047 21.726562C14.681319 20.957881 15 19.972222 15 19C15 18.027778 14.681319 17.042119 13.998047 16.273438C13.314774 15.504756 12.25 15 11 15 z M 11 17C11.749999 17 12.185226 17.245244 12.501953 17.601562C12.81868 17.957881 13 18.472222 13 19C13 19.527778 12.81868 20.042119 12.501953 20.398438C12.185226 20.754756 11.749999 21 11 21C10.250001 21 9.8147739 20.754756 9.4980469 20.398438C9.1813198 20.042119 9 19.527778 9 19C9 18.472222 9.1813198 17.957881 9.4980469 17.601562C9.8147739 17.245244 10.250001 17 11 17 z M 21 17C21.749999 17 22.185226 17.245244 22.501953 17.601562C22.81868 17.957881 23 18.472222 23 19C23 19.527778 22.81868 20.042119 22.501953 20.398438C22.185226 20.754756 21.749999 21 21 21C20.250001 21 19.814774 20.754756 19.498047 20.398438C19.18132 20.042119 19 19.527778 19 19C19 18.472222 19.18132 17.957881 19.498047 17.601562C19.814774 17.245244 20.250001 17 21 17 z" fill="#FFFFFF" />
</svg>