<?xml version="1.0" encoding="utf-8"?>
<svg xmlns="http://www.w3.org/2000/svg" viewBox="0 0 32 32" width="512" height="512">
  <path d="M19.3125 6.96875C18.757813 6.972656 18.207031 7 17.625 7.15625C17.042969 7.3125 16.460938 7.5625 15.84375 7.96875C15.078125 7.519531 14.335938 7.148438 13.625 7.0625C12.742188 6.953125 11.921875 7.011719 10.96875 7.03125C9.839844 7.054688 9.101563 7.632813 7.90625 8.09375C6.710938 8.554688 5.171875 9 3 9L2 9L2 18.625L2.5625 18.90625L4.40625 19.8125L10.96875 27.125L11 27.15625C11.75 27.898438 12.761719 28.082031 13.65625 28.03125C14.550781 27.980469 15.390625 27.71875 16.0625 27.3125C17.539063 26.421875 21.5625 23.625 21.5625 23.625L21.65625 23.5625L21.71875 23.5C22.195313 23.027344 22.433594 22.449219 22.59375 21.84375L26.4375 19.90625L29.3125 18.9375L30 18.71875L30 9L29 9C26.832031 9 25.289063 8.53125 24.09375 8.0625C22.898438 7.59375 22.171875 7.023438 21.03125 7C20.421875 6.988281 19.867188 6.964844 19.3125 6.96875 Z M 19.34375 8.96875C19.792969 8.964844 20.3125 8.988281 20.96875 9C21.074219 9.003906 22.035156 9.414063 23.375 9.9375C24.507813 10.382813 26.082031 10.777344 28 10.90625L28 17.28125L25.6875 18.0625L25.625 18.0625L25.5625 18.09375L22.53125 19.625C22.363281 19.167969 22.132813 18.746094 21.78125 18.375L21.71875 18.28125L17.46875 13.0625L16.84375 12.28125L16.0625 12.90625L13.375 15.09375C12.472656 15.71875 11.742188 15.539063 11 15.1875C10.785156 15.085938 10.796875 15.054688 10.625 14.9375L15.1875 11.15625L15.25 11.09375C16.605469 9.75 17.4375 9.285156 18.15625 9.09375C18.515625 8.996094 18.894531 8.972656 19.34375 8.96875 Z M 12.375 9C12.757813 8.992188 13.078125 8.996094 13.375 9.03125C13.636719 9.0625 13.933594 9.285156 14.1875 9.375C14.085938 9.46875 14.011719 9.523438 13.90625 9.625C13.882813 9.648438 13.867188 9.664063 13.84375 9.6875L8.375 14.21875L7.53125 14.90625L8.28125 15.6875C8.28125 15.6875 9.003906 16.46875 10.125 17C11.246094 17.53125 12.976563 17.832031 14.53125 16.75L14.59375 16.6875L16.53125 15.09375L20.21875 19.625L20.25 19.6875L20.28125 19.71875C20.941406 20.371094 20.925781 21.398438 20.28125 22.0625C20.273438 22.070313 20.289063 22.085938 20.28125 22.09375C20.273438 22.097656 20.140625 22.175781 20.125 22.1875L18.8125 20.40625L17.1875 21.59375L18.46875 23.3125C17.949219 23.664063 17.714844 23.847656 17.15625 24.21875L15.8125 22.40625L14.1875 23.59375L15.46875 25.3125C15.355469 25.382813 15.121094 25.539063 15.03125 25.59375C14.714844 25.785156 14.105469 26 13.5625 26.03125C13.050781 26.058594 12.660156 25.941406 12.46875 25.78125L12.4375 25.75L5.75 18.34375L5.625 18.1875L4 17.375L4 10.90625C5.910156 10.78125 7.496094 10.402344 8.625 9.96875C9.960938 9.457031 10.914063 9.035156 11.03125 9.03125C11.542969 9.019531 11.992188 9.007813 12.375 9Z" fill="#FFFFFF" />
</svg>