<?xml version="1.0" encoding="utf-8"?>
<svg xmlns="http://www.w3.org/2000/svg" viewBox="0 0 32 32" width="512" height="512">
  <path d="M25.03125 4L24 4.46875C20.820313 5.871094 16.226563 6.398438 12.3125 7.78125C10.355469 8.472656 8.542969 9.394531 7.1875 10.875C5.832031 12.355469 5 14.394531 5 17C5 19.695313 6.585938 21.542969 8.0625 22.59375C8.691406 23.042969 9.300781 23.367188 9.8125 23.59375C9.195313 24.738281 8.738281 25.769531 8.4375 26.65625C7.890625 28.253906 7.804688 29.503906 7.84375 30.40625C7.882813 31.308594 8 31.925781 8 31.90625L10 32.09375C10.0625 31.371094 9.875 30.992188 9.84375 30.3125C9.8125 29.632813 9.871094 28.699219 10.34375 27.3125C11.289063 24.542969 13.910156 19.984375 20.71875 12.6875L19.28125 11.3125C15.199219 15.6875 12.5625 19.097656 10.84375 21.84375C10.40625 21.667969 9.820313 21.398438 9.21875 20.96875C8.058594 20.144531 7 18.9375 7 17C7 14.796875 7.628906 13.34375 8.65625 12.21875C9.683594 11.09375 11.179688 10.289063 12.96875 9.65625C16.207031 8.511719 20.214844 7.933594 23.65625 6.65625C23.976563 7.871094 25 12.03125 25 18.53125C25 22.21875 24.136719 24.332031 23.125 25.5C22.113281 26.667969 20.894531 27 19.8125 27C18.734375 27 17.570313 26.449219 16.5625 25.75C15.554688 25.050781 14.859375 24.320313 14.15625 23.875L13.09375 25.5625C13.273438 25.675781 14.269531 26.597656 15.4375 27.40625C16.605469 28.214844 18.085938 29 19.8125 29C21.351563 29 23.234375 28.457031 24.65625 26.8125C26.078125 25.167969 27 22.527344 27 18.53125C27 10.710938 25.34375 5.09375 25.34375 5.09375Z" fill="#FFFFFF" />
</svg>