<?xml version="1.0" encoding="utf-8"?>
<svg xmlns="http://www.w3.org/2000/svg" viewBox="0 0 32 32" width="512" height="512">
  <path d="M9.5 3C5.362182 3 2 6.4035211 2 10.5C2 11.928333 2.6517943 13.153437 3.2519531 14.048828C3.852112 14.94422 4.4648436 15.544922 4.4648438 15.544922L7.2714844 18.353516L8.6855469 16.939453L5.8710938 14.123047L5.8691406 14.121094C5.8691406 14.121094 5.3974037 13.656655 4.9140625 12.935547C4.4307181 12.214485 4 11.271667 4 10.5C4 7.4964789 6.457818 5 9.5 5C12.486472 5 15.255859 7.9179686 15.255859 7.9179688L16 8.75L16.744141 7.9179688C16.744141 7.9179688 19.513528 5 22.5 5C25.542182 5 28 7.4964789 28 10.5L28 11L30 11L30 10.5C30 6.4035211 26.637818 3 22.5 3C19.067966 3 16.855454 5.0600745 16 5.9316406C15.144546 5.0600745 12.932034 3 9.5 3 z M 22.410156 9.9863281L21.703125 10.693359L18.365234 14.03125L18.033203 14.03125L14.46875 14.03125 A 1.0001 1.0001 0 0 0 13.753906 14.332031L10.271484 17.880859C8.9431568 19.20979 8.8405438 20.814602 9.2089844 21.865234C9.577425 22.915867 10.298828 23.564453 10.298828 23.564453C10.326348 23.591993 12.442836 25.709455 14.515625 27.78125C15.798396 29.063406 17.388006 29.14791 18.435547 28.806641C19.483088 28.465372 20.160156 27.792969 20.160156 27.792969 A 1.0001 1.0001 0 0 0 20.171875 27.779297L27.980469 19.970703L28.6875 19.263672L27.273438 17.849609L26.566406 18.556641L18.769531 26.353516C18.769531 26.353516 18.368866 26.724316 17.816406 26.904297C17.263947 27.084278 16.732917 27.168078 15.929688 26.365234C13.843917 24.280464 11.685547 22.123047 11.685547 22.123047 A 1.0001 1.0001 0 0 0 11.658203 22.095703C11.658203 22.095703 11.278013 21.722992 11.095703 21.203125C10.913394 20.683258 10.810875 20.169991 11.685547 19.294922 A 1.0001 1.0001 0 0 0 11.693359 19.287109L14.888672 16.03125L16.365234 16.03125L15.222656 17.173828L14.515625 17.880859L15.929688 19.294922L16.636719 18.587891L23.117188 12.107422L23.824219 11.400391L22.410156 9.9863281 z M 25.53125 11.107422L24.824219 11.814453L18.757812 17.880859L18.050781 18.587891L19.464844 20.001953L20.171875 19.294922L26.238281 13.228516L26.945312 12.521484L25.53125 11.107422 z M 26.652344 14.228516L25.945312 14.935547L20.878906 20.001953L20.171875 20.708984L21.585938 22.123047L22.292969 21.416016L27.359375 16.349609L28.066406 15.642578L26.652344 14.228516 z" fill="#FFFFFF" />
</svg>